<svg xmlns="http://www.w3.org/2000/svg" width="160.88" height="35" viewBox="0 0 160.88 35"><rect class="svg__rect" x="0" y="0" width="77.97" height="35" fill="#31C4F3"/><rect class="svg__rect" x="75.97" y="0" width="84.91" height="35" fill="#389AD5"/><path class="svg__text" d="M13.95 18.19L13.95 18.19L13.95 17.39Q13.95 16.19 14.38 15.27Q14.80 14.35 15.60 13.85Q16.40 13.35 17.45 13.35L17.45 13.35Q18.86 13.35 19.73 14.12Q20.59 14.89 20.73 16.29L20.73 16.29L19.25 16.29Q19.14 15.37 18.71 14.96Q18.28 14.55 17.45 14.55L17.45 14.55Q16.48 14.55 15.97 15.26Q15.45 15.96 15.44 17.33L15.44 17.33L15.44 18.09Q15.44 19.47 15.93 20.20Q16.43 20.92 17.38 20.92L17.38 20.92Q18.25 20.92 18.69 20.53Q19.13 20.14 19.25 19.22L19.25 19.22L20.73 19.22Q20.60 20.59 19.72 21.35Q18.84 22.12 17.38 22.12L17.38 22.12Q16.36 22.12 15.59 21.63Q14.81 21.15 14.39 20.26Q13.97 19.37 13.95 18.19ZM26.52 22L25.04 22L25.04 13.47L26.52 13.47L26.52 17.02L30.34 17.02L30.34 13.47L31.81 13.47L31.81 22L30.34 22L30.34 18.21L26.52 18.21L26.52 22ZM42.13 22L36.55 22L36.55 13.47L42.09 13.47L42.09 14.66L38.04 14.66L38.04 17.02L41.54 17.02L41.54 18.19L38.04 18.19L38.04 20.82L42.13 20.82L42.13 22ZM46.06 18.19L46.06 18.19L46.06 17.39Q46.06 16.19 46.48 15.27Q46.91 14.35 47.71 13.85Q48.51 13.35 49.56 13.35L49.56 13.35Q50.97 13.35 51.83 14.12Q52.70 14.89 52.84 16.29L52.84 16.29L51.36 16.29Q51.25 15.37 50.82 14.96Q50.39 14.55 49.56 14.55L49.56 14.55Q48.59 14.55 48.08 15.26Q47.56 15.96 47.55 17.33L47.55 17.33L47.55 18.09Q47.55 19.47 48.04 20.20Q48.54 20.92 49.49 20.92L49.49 20.92Q50.36 20.92 50.80 20.53Q51.24 20.14 51.36 19.22L51.36 19.22L52.84 19.22Q52.71 20.59 51.83 21.35Q50.95 22.12 49.49 22.12L49.49 22.12Q48.47 22.12 47.69 21.63Q46.92 21.15 46.50 20.26Q46.07 19.37 46.06 18.19ZM58.63 22L57.15 22L57.15 13.47L58.63 13.47L58.63 17.47L59.45 16.46L61.95 13.47L63.74 13.47L60.57 17.25L63.92 22L62.16 22L59.60 18.31L58.63 19.34L58.63 22Z" fill="#FFFFFF"/><path class="svg__text" d="M92.54 22L90.16 22L90.16 13.60L92.54 13.60L92.54 22ZM99.50 15.48L96.92 15.48L96.92 13.60L104.44 13.60L104.44 15.48L101.88 15.48L101.88 22L99.50 22L99.50 15.48ZM115.36 17.80L115.36 17.80Q115.36 16.55 115.96 15.55Q116.57 14.56 117.63 14.00Q118.69 13.43 120.02 13.43L120.02 13.43Q121.35 13.43 122.42 14.00Q123.48 14.56 124.09 15.55Q124.69 16.55 124.69 17.80L124.69 17.80Q124.69 19.05 124.09 20.04Q123.48 21.04 122.42 21.60Q121.36 22.17 120.02 22.17L120.02 22.17Q118.69 22.17 117.63 21.60Q116.57 21.04 115.96 20.04Q115.36 19.05 115.36 17.80ZM117.76 17.80L117.76 17.80Q117.76 18.51 118.06 19.05Q118.36 19.60 118.87 19.90Q119.39 20.20 120.02 20.20L120.02 20.20Q120.66 20.20 121.18 19.90Q121.69 19.60 121.99 19.05Q122.29 18.51 122.29 17.80L122.29 17.80Q122.29 17.09 121.99 16.54Q121.69 16 121.18 15.70Q120.66 15.40 120.02 15.40L120.02 15.40Q119.38 15.40 118.87 15.70Q118.36 16 118.06 16.54Q117.76 17.09 117.76 17.80ZM129.35 18.26L129.35 18.26L129.35 13.60L131.73 13.60L131.73 18.19Q131.73 20.20 133.32 20.20L133.32 20.20Q134.91 20.20 134.91 18.19L134.91 18.19L134.91 13.60L137.25 13.60L137.25 18.26Q137.25 20.13 136.21 21.15Q135.17 22.17 133.30 22.17L133.30 22.17Q131.43 22.17 130.39 21.15Q129.35 20.13 129.35 18.26ZM144.13 15.48L141.54 15.48L141.54 13.60L149.07 13.60L149.07 15.48L146.50 15.48L146.50 22L144.13 22L144.13 15.48Z" fill="#FFFFFF" x="88.97"/></svg>