<svg xmlns="http://www.w3.org/2000/svg" width="160.57" height="35" viewBox="0 0 160.57 35"><rect class="svg__rect" x="0" y="0" width="66.74" height="35" fill="#31C4F3"/><rect class="svg__rect" x="64.74" y="0" width="95.82999999999998" height="35" fill="#389AD5"/><path class="svg__text" d="M13.95 18.00L13.95 18.00L13.95 17.52Q13.95 16.28 14.39 15.32Q14.83 14.37 15.64 13.86Q16.44 13.35 17.49 13.35Q18.53 13.35 19.34 13.85Q20.14 14.35 20.58 15.29Q21.02 16.23 21.03 17.48L21.03 17.48L21.03 17.96Q21.03 19.21 20.59 20.16Q20.16 21.10 19.35 21.61Q18.55 22.12 17.50 22.12L17.50 22.12Q16.46 22.12 15.65 21.61Q14.84 21.10 14.40 20.17Q13.95 19.23 13.95 18.00ZM15.43 17.46L15.43 17.96Q15.43 19.36 15.98 20.13Q16.53 20.90 17.50 20.90L17.50 20.90Q18.48 20.90 19.01 20.15Q19.54 19.40 19.54 17.96L19.54 17.96L19.54 17.51Q19.54 16.09 19.01 15.34Q18.47 14.58 17.49 14.58L17.49 14.58Q16.53 14.58 15.98 15.33Q15.44 16.09 15.43 17.46L15.43 17.46ZM26.97 22L25.49 22L25.49 13.47L28.75 13.47Q30.18 13.47 31.02 14.21Q31.87 14.96 31.87 16.18L31.87 16.18Q31.87 17.44 31.04 18.13Q30.22 18.83 28.74 18.83L28.74 18.83L26.97 18.83L26.97 22ZM26.97 14.66L26.97 17.64L28.75 17.64Q29.55 17.64 29.96 17.27Q30.38 16.90 30.38 16.19L30.38 16.19Q30.38 15.50 29.96 15.09Q29.53 14.68 28.80 14.66L28.80 14.66L26.97 14.66ZM41.73 22L36.15 22L36.15 13.47L41.69 13.47L41.69 14.66L37.63 14.66L37.63 17.02L41.14 17.02L41.14 18.19L37.63 18.19L37.63 20.82L41.73 20.82L41.73 22ZM47.40 22L45.92 22L45.92 13.47L47.40 13.47L51.22 19.54L51.22 13.47L52.69 13.47L52.69 22L51.21 22L47.40 15.95L47.40 22Z" fill="#FFFFFF"/><path class="svg__text" d="M78.34 21.24L78.34 21.24L79.12 19.49Q79.68 19.86 80.43 20.09Q81.17 20.32 81.89 20.32L81.89 20.32Q83.26 20.32 83.26 19.64L83.26 19.64Q83.26 19.28 82.87 19.11Q82.48 18.93 81.62 18.74L81.62 18.74Q80.67 18.53 80.03 18.30Q79.40 18.06 78.94 17.55Q78.49 17.03 78.49 16.16L78.49 16.16Q78.49 15.39 78.91 14.77Q79.33 14.15 80.16 13.79Q81.00 13.43 82.20 13.43L82.20 13.43Q83.03 13.43 83.84 13.62Q84.64 13.80 85.26 14.17L85.26 14.17L84.52 15.93Q83.32 15.28 82.19 15.28L82.19 15.28Q81.48 15.28 81.16 15.49Q80.84 15.70 80.84 16.04L80.84 16.04Q80.84 16.37 81.22 16.54Q81.61 16.71 82.46 16.89L82.46 16.89Q83.42 17.10 84.05 17.33Q84.68 17.56 85.14 18.07Q85.60 18.58 85.60 19.46L85.60 19.46Q85.60 20.21 85.18 20.83Q84.76 21.44 83.92 21.80Q83.08 22.17 81.88 22.17L81.88 22.17Q80.86 22.17 79.90 21.92Q78.94 21.67 78.34 21.24ZM89.75 17.80L89.75 17.80Q89.75 16.55 90.35 15.55Q90.96 14.56 92.02 14.00Q93.08 13.43 94.41 13.43L94.41 13.43Q95.74 13.43 96.81 14.00Q97.87 14.56 98.48 15.55Q99.08 16.55 99.08 17.80L99.08 17.80Q99.08 19.05 98.48 20.04Q97.87 21.04 96.81 21.60Q95.75 22.17 94.41 22.17L94.41 22.17Q93.08 22.17 92.02 21.60Q90.96 21.04 90.35 20.04Q89.75 19.05 89.75 17.80ZM92.15 17.80L92.15 17.80Q92.15 18.51 92.45 19.05Q92.75 19.60 93.27 19.90Q93.78 20.20 94.41 20.20L94.41 20.20Q95.05 20.20 95.57 19.90Q96.08 19.60 96.38 19.05Q96.68 18.51 96.68 17.80L96.68 17.80Q96.68 17.09 96.38 16.54Q96.08 16 95.57 15.70Q95.05 15.40 94.41 15.40L94.41 15.40Q93.78 15.40 93.26 15.70Q92.75 16 92.45 16.54Q92.15 17.09 92.15 17.80ZM103.74 18.26L103.74 18.26L103.74 13.60L106.12 13.60L106.12 18.19Q106.12 20.20 107.71 20.20L107.71 20.20Q109.30 20.20 109.30 18.19L109.30 18.19L109.30 13.60L111.64 13.60L111.64 18.26Q111.64 20.13 110.60 21.15Q109.56 22.17 107.69 22.17L107.69 22.17Q105.82 22.17 104.78 21.15Q103.74 20.13 103.74 18.26ZM119.11 22L116.73 22L116.73 13.60L120.57 13.60Q121.71 13.60 122.55 13.98Q123.39 14.35 123.85 15.06Q124.30 15.76 124.30 16.71L124.30 16.71Q124.30 17.62 123.88 18.30Q123.45 18.98 122.66 19.36L122.66 19.36L124.47 22L121.92 22L120.40 19.77L119.11 19.77L119.11 22ZM119.11 15.47L119.11 17.93L120.42 17.93Q121.16 17.93 121.53 17.61Q121.90 17.29 121.90 16.71L121.90 16.71Q121.90 16.12 121.53 15.79Q121.16 15.47 120.42 15.47L120.42 15.47L119.11 15.47ZM128.66 17.80L128.66 17.80Q128.66 16.54 129.26 15.54Q129.86 14.55 130.91 13.99Q131.96 13.43 133.28 13.43L133.28 13.43Q134.43 13.43 135.36 13.84Q136.28 14.25 136.89 15.02L136.89 15.02L135.38 16.39Q134.57 15.40 133.40 15.40L133.40 15.40Q132.72 15.40 132.18 15.70Q131.65 16 131.35 16.54Q131.06 17.09 131.06 17.80L131.06 17.80Q131.06 18.51 131.35 19.05Q131.65 19.60 132.18 19.90Q132.72 20.20 133.40 20.20L133.40 20.20Q134.57 20.20 135.38 19.22L135.38 19.22L136.89 20.58Q136.29 21.35 135.36 21.76Q134.43 22.17 133.28 22.17L133.28 22.17Q131.96 22.17 130.91 21.61Q129.86 21.05 129.26 20.05Q128.66 19.06 128.66 17.80ZM148.17 22L141.43 22L141.43 13.60L148.02 13.60L148.02 15.44L143.79 15.44L143.79 16.85L147.52 16.85L147.52 18.63L143.79 18.63L143.79 20.17L148.17 20.17L148.17 22Z" fill="#FFFFFF" x="77.74"/></svg>